<?xml version="1.0" encoding="utf-8"?>
<!-- Generator: Adobe Illustrator 24.3.0, SVG Export Plug-In . SVG Version: 6.00 Build 0)  -->
<svg version="1.1" id="Слой_1" xmlns="http://www.w3.org/2000/svg" xmlns:xlink="http://www.w3.org/1999/xlink" x="0px" y="0px"
	 viewBox="0 0 283.46 283.46" style="enable-background:new 0 0 283.46 283.46;" xml:space="preserve">
<g>
	<path fill="#9fc8d6" d="M141.9,206.88c37.13,0,74.26,0,111.4,0c10.38,0,18.58,8.17,18.63,18.58c0.03,6,0.01,11.99-0.03,17.99
		c-0.07,11.16-7.68,19.01-18.82,19.13c-12.89,0.14-25.77,0.04-38.66,0.05c-23.03,0-46.06,0.01-69.09,0.01c-22.9,0-45.81,0-68.71,0
		c-14.99,0-29.99-0.01-44.98,0.02c-6.18,0.01-11.53-1.78-15.66-6.6c-2.86-3.34-4.32-7.22-4.39-11.56
		c-0.1-6.51-0.13-13.02-0.03-19.52c0.15-9.84,8.36-18.03,18.19-18.06c25.78-0.06,51.55-0.02,77.33-0.02
		C118.68,206.88,130.29,206.89,141.9,206.88z"/>
	<path fill="#9fc8d6"  d="M141.74,169.57c-36.56,0-73.11-0.03-109.67,0.03c-6.24,0.01-11.7-1.57-15.94-6.4c-3.04-3.46-4.51-7.52-4.56-12.08
		c-0.07-6.25-0.08-12.5-0.03-18.76c0.08-10.35,8.38-18.52,18.72-18.52c37.96,0.01,75.92,0.02,113.88,0.02
		c36.37,0,72.73-0.02,109.1-0.01c10.27,0,18.43,7.87,18.66,18.14c0.14,6.38,0.1,12.76-0.02,19.14
		c-0.19,10.55-7.95,18.32-18.56,18.39c-17.74,0.12-35.47,0.05-53.21,0.06c-9.76,0-19.52,0-29.28,0
		C161.14,169.57,151.44,169.57,141.74,169.57z"/>
	<path fill="#9fc8d6"  d="M141.8,20.8c37.19,0,74.39,0,111.58,0c9.94,0,18.2,7.81,18.49,17.71c0.19,6.44,0.21,12.89,0.02,19.33
		c-0.32,11.09-7.81,18.51-18.91,18.64c-12.76,0.15-25.52,0.06-38.28,0.06c-17.93,0-35.85-0.01-53.78-0.02
		c-18.05,0-36.11-0.01-54.16-0.01c-17.8,0-35.6,0.06-53.4,0c-8.35-0.02-16.73,0.43-25.06-0.2c-9.34-0.71-16.43-8.27-16.7-17.63
		c-0.19-6.76-0.22-13.53-0.02-20.28c0.29-9.75,8.66-17.6,18.45-17.6C67.29,20.8,104.54,20.8,141.8,20.8z"/>
</g>
</svg>
