<?xml version="1.0" encoding="utf-8"?>
<!-- Generator: Adobe Illustrator 24.3.0, SVG Export Plug-In . SVG Version: 6.00 Build 0)  -->
<svg version="1.1" id="Слой_1" xmlns="http://www.w3.org/2000/svg" xmlns:xlink="http://www.w3.org/1999/xlink" x="0px" y="0px"
	 viewBox="0 0 200 200" style="enable-background:new 0 0 200 200;" xml:space="preserve">
<style type="text/css">
	.st0{fill:#cecece;}
	.st1{fill:#06d7a0;}
</style>
<path class="st0" d="M95,0.2c3.47,0,6.93,0,10.4,0c0.29,0.21,0.64,0.18,0.97,0.19c5.13,0.23,10.21,0.94,15.21,2.07
	c23.58,5.34,42.9,17.5,57.75,36.58c11.99,15.41,18.78,32.93,20.52,52.4c0.11,1.18-0.04,2.4,0.36,3.56c0,3.47,0,6.93,0,10.4
	c-0.19,0.26-0.17,0.57-0.19,0.86c-0.19,4.5-0.79,8.95-1.67,13.36c-3.38,16.81-10.45,31.89-21.6,44.92
	c-17.83,20.85-40.44,32.65-67.79,35.29c-1.18,0.11-2.4-0.04-3.55,0.36c-3.47,0-6.93,0-10.4,0c-0.26-0.2-0.57-0.17-0.86-0.19
	c-2.16-0.08-4.31-0.34-6.46-0.59c-8.33-1-16.41-3.02-24.18-6.16c-22.98-9.28-40.33-24.87-51.96-46.76
	c-6.22-11.71-9.81-24.23-10.97-37.44c-0.11-1.22,0.02-2.47-0.37-3.66c0-3.47,0-6.93,0-10.4c0.38-1.16,0.26-2.38,0.36-3.56
	c0.66-7.82,2.17-15.48,4.74-22.89c9.19-26.52,26.39-46.05,51.54-58.49C67.73,4.67,79.32,1.6,91.44,0.56C92.63,0.46,93.84,0.6,95,0.2
	z M100.28,20.2c-44.15,0.09-79.94,35.47-80.05,79.82c-0.11,44.19,35.42,80.09,79.88,80.15c44.24,0.07,80-35.53,80.06-79.89
	C180.22,56.07,144.65,20.38,100.28,20.2z"/>
<path class="st1" d="M50.2,100.18c0-27.66,22.38-49.98,50.1-49.97c27.67,0.01,49.91,22.42,49.9,50.27
	c-0.02,27.49-22.51,49.75-50.25,49.73C72.52,150.17,50.2,127.73,50.2,100.18z"/>
</svg>
